{
  "accessors": [
    {
      "bufferView": 1,
      "componentType": 5126,
      "count": 8579,
      "max": [
        2.6940121650695801,
        -1.4293954372406006,
        1.0729770660400391
      ],
      "min": [
        1.4455151557922363,
        -2.7104718685150146,
        -0.16134895384311676
      ],
      "type": "VEC3"
    },
    {
      "bufferView": 1,
      "byteOffset": 102948,
      "componentType": 5126,
      "count": 8579,
      "max": [
        0.99961817264556885,
        0.99995797872543335,
        0.99999094009399414
      ],
      "min": [
        -0.99995863437652588,
        -0.99960553646087646,
        -0.99984413385391235
      ],
      "type": "VEC3"
    },
    {
      "bufferView": 2,
      "componentType": 5126,
      "count": 8579,
      "max": [
        0.98823529481887817,
        0.80392158031463623,
        0.49803921580314636,
        1
      ],
      "min": [
        0.60000002384185791,
        0.42745098471641541,
        0.42745098471641541,
        1
      ],
      "type": "VEC4"
    },
    {
      "bufferView": 0,
      "componentType": 5125,
      "count": 49548,
      "max": [
        8578
      ],
      "min": [
        0
      ],
      "type": "SCALAR"
    },
    {
      "bufferView": 1,
      "byteOffset": 205896,
      "componentType": 5126,
      "count": 10199,
      "max": [
        -1.5693552494049072,
        0.94470405578613281,
        1.4824566841125488
      ],
      "min": [
        -2.9361557960510254,
        -0.42413619160652161,
        0.094404369592666626
      ],
      "type": "VEC3"
    },
    {
      "bufferView": 1,
      "byteOffset": 328284,
      "componentType": 5126,
      "count": 10199,
      "max": [
        0.99985188245773315,
        0.99947845935821533,
        0.99950218200683594
      ],
      "min": [
        -0.99932438135147095,
        -0.99996483325958252,
        -0.99990242719650269
      ],
      "type": "VEC3"
    },
    {
      "bufferView": 2,
      "byteOffset": 137264,
      "componentType": 5126,
      "count": 10199,
      "max": [
        0.98823529481887817,
        0.80392158031463623,
        0.49803921580314636,
        1
      ],
      "min": [
        0.60000002384185791,
        0.42745098471641541,
        0.42745098471641541,
        1
      ],
      "type": "VEC4"
    },
    {
      "bufferView": 0,
      "byteOffset": 198192,
      "componentType": 5125,
      "count": 59166,
      "max": [
        10198
      ],
      "min": [
        0
      ],
      "type": "SCALAR"
    },
    {
      "bufferView": 1,
      "byteOffset": 450672,
      "componentType": 5126,
      "count": 14012,
      "max": [
        3.4583578109741211,
        0.0064068599604070187,
        1.509859561920166
      ],
      "min": [
        1.8382077217102051,
        -1.709601879119873,
        -0.1333155632019043
      ],
      "type": "VEC3"
    },
    {
      "bufferView": 1,
      "byteOffset": 618816,
      "componentType": 5126,
      "count": 14012,
      "max": [
        0.99998420476913452,
        0.9999842643737793,
        0.99905687570571899
      ],
      "min": [
        -0.99965691566467285,
        -0.99984097480773926,
        -0.99984604120254517
      ],
      "type": "VEC3"
    },
    {
      "bufferView": 2,
      "byteOffset": 300448,
      "componentType": 5126,
      "count": 14012,
      "max": [
        0.98823529481887817,
        0.80392158031463623,
        0.49803921580314636,
        1
      ],
      "min": [
        0.60000002384185791,
        0.42745098471641541,
        0.42745098471641541,
        1
      ],
      "type": "VEC4"
    },
    {
      "bufferView": 0,
      "byteOffset": 434856,
      "componentType": 5125,
      "count": 81534,
      "max": [
        14011
      ],
      "min": [
        0
      ],
      "type": "SCALAR"
    },
    {
      "bufferView": 1,
      "byteOffset": 786960,
      "componentType": 5126,
      "count": 1441,
      "max": [
        1.6257833242416382,
        0.62887448072433472,
        1.1077256202697754
      ],
      "min": [
        -0.065237373113632202,
        0.14717592298984528,
        -0.049652781337499619
      ],
      "type": "VEC3"
    },
    {
      "bufferView": 1,
      "byteOffset": 804252,
      "componentType": 5126,
      "count": 1441,
      "max": [
        0.99600338935852051,
        0.99979996681213379,
        0.99570578336715698
      ],
      "min": [
        -0.90273064374923706,
        -0.99981909990310669,
        -0.99929791688919067
      ],
      "type": "VEC3"
    },
    {
      "bufferView": 2,
      "byteOffset": 524640,
      "componentType": 5126,
      "count": 1441,
      "max": [
        0.99607843160629272,
        0.99607843160629272,
        0.99607843160629272,
        1
      ],
      "min": [
        0.97647058963775635,
        0.74117648601531982,
        0.50196081399917603,
        1
      ],
      "type": "VEC4"
    },
    {
      "bufferView": 0,
      "byteOffset": 760992,
      "componentType": 5125,
      "count": 8520,
      "max": [
        1440
      ],
      "min": [
        0
      ],
      "type": "SCALAR"
    },
    {
      "bufferView": 1,
      "byteOffset": 821544,
      "componentType": 5126,
      "count": 2970,
      "max": [
        0.64276993274688721,
        -0.48383790254592896,
        0.70678919553756714
      ],
      "min": [
        -0.66132092475891113,
        -1.0756409168243408,
        -0.14418371021747589
      ],
      "type": "VEC3"
    },
    {
      "bufferView": 1,
      "byteOffset": 857184,
      "componentType": 5126,
      "count": 2970,
      "max": [
        0.99999934434890747,
        0.99951827526092529,
        0.9934810996055603
      ],
      "min": [
        -0.99998784065246582,
        -0.99983859062194824,
        -0.99994570016860962
      ],
      "type": "VEC3"
    },
    {
      "bufferView": 2,
      "byteOffset": 547696,
      "componentType": 5126,
      "count": 2970,
      "max": [
        1,
        1,
        1,
        1
      ],
      "min": [
        1,
        1,
        1,
        1
      ],
      "type": "VEC4"
    },
    {
      "bufferView": 0,
      "byteOffset": 795072,
      "componentType": 5125,
      "count": 17796,
      "max": [
        2969
      ],
      "min": [
        0
      ],
      "type": "SCALAR"
    },
    {
      "bufferView": 1,
      "byteOffset": 892824,
      "componentType": 5126,
      "count": 12291,
      "max": [
        1.9113444089889526,
        0.013919970020651817,
        4.5445170402526855
      ],
      "min": [
        -1.9113434553146362,
        -0.65813952684402466,
        2.3592147827148438
      ],
      "type": "VEC3"
    },
    {
      "bufferView": 1,
      "byteOffset": 1040316,
      "componentType": 5126,
      "count": 12291,
      "max": [
        0.99999576807022095,
        0.99896925687789917,
        0.99834239482879639
      ],
      "min": [
        -0.99999666213989258,
        -0.99996078014373779,
        -0.99632608890533447
      ],
      "type": "VEC3"
    },
    {
      "bufferView": 2,
      "byteOffset": 595216,
      "componentType": 5126,
      "count": 12291,
      "max": [
        0.99607843160629272,
        0.99607843160629272,
        0.99607843160629272,
        1
      ],
      "min": [
        0.97647058963775635,
        0.74117648601531982,
        0.50196081399917603,
        1
      ],
      "type": "VEC4"
    },
    {
      "bufferView": 0,
      "byteOffset": 866256,
      "componentType": 5125,
      "count": 73500,
      "max": [
        12290
      ],
      "min": [
        0
      ],
      "type": "SCALAR"
    },
    {
      "bufferView": 1,
      "byteOffset": 1187808,
      "componentType": 5126,
      "count": 3472,
      "max": [
        1.4347245693206787,
        -1.2541340589523315,
        2.5409505367279053
      ],
      "min": [
        -1.4319632053375244,
        -1.8475503921508789,
        1.9764804840087891
      ],
      "type": "VEC3"
    },
    {
      "bufferView": 1,
      "byteOffset": 1229472,
      "componentType": 5126,
      "count": 3472,
      "max": [
        0.99495774507522583,
        0.99978923797607422,
        0.99951297044754028
      ],
      "min": [
        -0.99230730533599854,
        -0.97996735572814941,
        -0.99958169460296631
      ],
      "type": "VEC3"
    },
    {
      "bufferView": 2,
      "byteOffset": 791872,
      "componentType": 5126,
      "count": 3472,
      "max": [
        0.42352941632270813,
        0.22745098173618317,
        0.019607843831181526,
        1
      ],
      "min": [
        0.42352941632270813,
        0.22745098173618317,
        0.019607843831181526,
        1
      ],
      "type": "VEC4"
    },
    {
      "bufferView": 0,
      "byteOffset": 1160256,
      "componentType": 5125,
      "count": 16344,
      "max": [
        3471
      ],
      "min": [
        0
      ],
      "type": "SCALAR"
    },
    {
      "bufferView": 1,
      "byteOffset": 1271136,
      "componentType": 5126,
      "count": 35894,
      "max": [
        1.7845834493637085,
        1.2017797231674194,
        4.0320687294006348
      ],
      "min": [
        -1.7845114469528198,
        -1.8876975774765015,
        1.0242793560028076
      ],
      "type": "VEC3"
    },
    {
      "bufferView": 1,
      "byteOffset": 1701864,
      "componentType": 5126,
      "count": 35894,
      "max": [
        0.99996703863143921,
        0.99996834993362427,
        0.99997103214263916
      ],
      "min": [
        -0.99997204542160034,
        -0.9998735785484314,
        -0.9999854564666748
      ],
      "type": "VEC3"
    },
    {
      "bufferView": 2,
      "byteOffset": 847424,
      "componentType": 5126,
      "count": 35894,
      "max": [
        0.99607843160629272,
        0.99607843160629272,
        0.99607843160629272,
        1
      ],
      "min": [
        0.42352941632270813,
        0.22745098173618317,
        0.019607843831181526,
        1
      ],
      "type": "VEC4"
    },
    {
      "bufferView": 0,
      "byteOffset": 1225632,
      "componentType": 5125,
      "count": 215352,
      "max": [
        35893
      ],
      "min": [
        0
      ],
      "type": "SCALAR"
    },
    {
      "bufferView": 1,
      "byteOffset": 2132592,
      "componentType": 5126,
      "count": 10984,
      "max": [
        1.0150288343429565,
        0.35575038194656372,
        1.4310711622238159
      ],
      "min": [
        -1.0150519609451294,
        -1.0011165142059326,
        -0.12238927930593491
      ],
      "type": "VEC3"
    },
    {
      "bufferView": 1,
      "byteOffset": 2264400,
      "componentType": 5126,
      "count": 10984,
      "max": [
        0.99994170665740967,
        0.99990755319595337,
        0.99969607591629028
      ],
      "min": [
        -0.99977582693099976,
        -0.99982273578643799,
        -0.9999542236328125
      ],
      "type": "VEC3"
    },
    {
      "bufferView": 2,
      "byteOffset": 1421728,
      "componentType": 5126,
      "count": 10984,
      "max": [
        0.99607843160629272,
        0.99607843160629272,
        0.99607843160629272,
        1
      ],
      "min": [
        0.97647058963775635,
        0.74117648601531982,
        0.50196081399917603,
        1
      ],
      "type": "VEC4"
    },
    {
      "bufferView": 0,
      "byteOffset": 2087040,
      "componentType": 5125,
      "count": 65892,
      "max": [
        10983
      ],
      "min": [
        0
      ],
      "type": "SCALAR"
    }
  ],
  "asset": {
    "extras": {
      "author": "jiayingc (https://sketchfab.com/jiayingc)",
      "license": "CC-BY-4.0 (http://creativecommons.org/licenses/by/4.0/)",
      "source": "https://sketchfab.com/3d-models/cute-cat-with-strawberries-769a5fa758de449e8154a6bbd33e9220",
      "title": "Cute Cat with Strawberries"
    },
    "generator": "Sketchfab-8.56.0",
    "version": "2.0"
  },
  "bufferViews": [
    {
      "buffer": 0,
      "byteLength": 2350608,
      "byteOffset": 0,
      "name": "floatBufferViews",
      "target": 34963
    },
    {
      "buffer": 0,
      "byteLength": 2396208,
      "byteOffset": 2350608,
      "byteStride": 12,
      "name": "floatBufferViews",
      "target": 34962
    },
    {
      "buffer": 0,
      "byteLength": 1597472,
      "byteOffset": 4746816,
      "byteStride": 16,
      "name": "floatBufferViews",
      "target": 34962
    }
  ],
  "buffers": [
    {
      "byteLength": 6344288,
      "uri": "scene.bin"
    }
  ],
  "materials": [
    {
      "doubleSided": true,
      "name": "material_0",
      "pbrMetallicRoughness": {
        "baseColorFactor": [
          1,
          1,
          1,
          1
        ],
        "metallicFactor": 0,
        "roughnessFactor": 0.59999999999999998
      }
    },
    {
      "doubleSided": true,
      "name": "material_1",
      "pbrMetallicRoughness": {
        "baseColorFactor": [
          1,
          1,
          1,
          1
        ],
        "metallicFactor": 0,
        "roughnessFactor": 0.59999999999999998
      }
    },
    {
      "doubleSided": true,
      "name": "material_2",
      "pbrMetallicRoughness": {
        "baseColorFactor": [
          1,
          1,
          1,
          1
        ],
        "metallicFactor": 0,
        "roughnessFactor": 0.59999999999999998
      }
    },
    {
      "doubleSided": true,
      "name": "material_3",
      "pbrMetallicRoughness": {
        "baseColorFactor": [
          1,
          1,
          1,
          1
        ],
        "metallicFactor": 0,
        "roughnessFactor": 0.59999999999999998
      }
    },
    {
      "doubleSided": true,
      "name": "material_4",
      "pbrMetallicRoughness": {
        "baseColorFactor": [
          1,
          1,
          1,
          1
        ],
        "metallicFactor": 0,
        "roughnessFactor": 0.59999999999999998
      }
    },
    {
      "doubleSided": true,
      "name": "material_5",
      "pbrMetallicRoughness": {
        "baseColorFactor": [
          1,
          1,
          1,
          1
        ],
        "metallicFactor": 0,
        "roughnessFactor": 0.59999999999999998
      }
    },
    {
      "doubleSided": true,
      "name": "material_6",
      "pbrMetallicRoughness": {
        "baseColorFactor": [
          1,
          1,
          1,
          1
        ],
        "metallicFactor": 0,
        "roughnessFactor": 0.59999999999999998
      }
    },
    {
      "doubleSided": true,
      "name": "material_7",
      "pbrMetallicRoughness": {
        "baseColorFactor": [
          1,
          1,
          1,
          1
        ],
        "metallicFactor": 0,
        "roughnessFactor": 0.59999999999999998
      }
    },
    {
      "doubleSided": true,
      "name": "material_8",
      "pbrMetallicRoughness": {
        "baseColorFactor": [
          1,
          1,
          1,
          1
        ],
        "metallicFactor": 0,
        "roughnessFactor": 0.59999999999999998
      }
    }
  ],
  "meshes": [
    {
      "primitives": [
        {
          "attributes": {
            "COLOR_0": 2,
            "NORMAL": 1,
            "POSITION": 0
          },
          "indices": 3,
          "material": 8,
          "mode": 4
        }
      ]
    },
    {
      "primitives": [
        {
          "attributes": {
            "COLOR_0": 6,
            "NORMAL": 5,
            "POSITION": 4
          },
          "indices": 7,
          "material": 7,
          "mode": 4
        }
      ]
    },
    {
      "primitives": [
        {
          "attributes": {
            "COLOR_0": 10,
            "NORMAL": 9,
            "POSITION": 8
          },
          "indices": 11,
          "material": 6,
          "mode": 4
        }
      ]
    },
    {
      "primitives": [
        {
          "attributes": {
            "COLOR_0": 14,
            "NORMAL": 13,
            "POSITION": 12
          },
          "indices": 15,
          "material": 5,
          "mode": 4
        }
      ]
    },
    {
      "primitives": [
        {
          "attributes": {
            "COLOR_0": 18,
            "NORMAL": 17,
            "POSITION": 16
          },
          "indices": 19,
          "material": 4,
          "mode": 4
        }
      ]
    },
    {
      "primitives": [
        {
          "attributes": {
            "COLOR_0": 22,
            "NORMAL": 21,
            "POSITION": 20
          },
          "indices": 23,
          "material": 3,
          "mode": 4
        }
      ]
    },
    {
      "primitives": [
        {
          "attributes": {
            "COLOR_0": 26,
            "NORMAL": 25,
            "POSITION": 24
          },
          "indices": 27,
          "material": 2,
          "mode": 4
        }
      ]
    },
    {
      "primitives": [
        {
          "attributes": {
            "COLOR_0": 30,
            "NORMAL": 29,
            "POSITION": 28
          },
          "indices": 31,
          "material": 1,
          "mode": 4
        }
      ]
    },
    {
      "primitives": [
        {
          "attributes": {
            "COLOR_0": 34,
            "NORMAL": 33,
            "POSITION": 32
          },
          "indices": 35,
          "material": 0,
          "mode": 4
        }
      ]
    }
  ],
  "nodes": [
    {
      "children": [
        1
      ],
      "name": "RootNode (gltf orientation matrix)",
      "rotation": [
        -0.70710678118654746,
        -0,
        -0,
        0.70710678118654757
      ]
    },
    {
      "children": [
        2
      ],
      "name": "RootNode (model correction matrix)"
    },
    {
      "children": [
        3,
        5,
        7,
        9,
        11,
        13,
        15,
        17,
        19
      ],
      "name": "zbrush_concat.osgb.cleaner.materialmerger.gles"
    },
    {
      "children": [
        4
      ],
      "name": "/sketchfab-data/processing/models/b00a7ba23db34fa68bbccb2c1f3d3d5c/769a5fa758de449e8154a6bbd33e9220/ca4664da0d224136adc4c7d8a42c21d9/preprocess/SubTool-8-10467438.OBJ"
    },
    {
      "mesh": 0,
      "name": ""
    },
    {
      "children": [
        6
      ],
      "name": "/sketchfab-data/processing/models/b00a7ba23db34fa68bbccb2c1f3d3d5c/769a5fa758de449e8154a6bbd33e9220/ca4664da0d224136adc4c7d8a42c21d9/preprocess/SubTool-7-10467438.OBJ"
    },
    {
      "mesh": 1,
      "name": ""
    },
    {
      "children": [
        8
      ],
      "name": "/sketchfab-data/processing/models/b00a7ba23db34fa68bbccb2c1f3d3d5c/769a5fa758de449e8154a6bbd33e9220/ca4664da0d224136adc4c7d8a42c21d9/preprocess/SubTool-6-10467438.OBJ"
    },
    {
      "mesh": 2,
      "name": ""
    },
    {
      "children": [
        10
      ],
      "name": "/sketchfab-data/processing/models/b00a7ba23db34fa68bbccb2c1f3d3d5c/769a5fa758de449e8154a6bbd33e9220/ca4664da0d224136adc4c7d8a42c21d9/preprocess/SubTool-5-7072737.OBJ"
    },
    {
      "mesh": 3,
      "name": ""
    },
    {
      "children": [
        12
      ],
      "name": "/sketchfab-data/processing/models/b00a7ba23db34fa68bbccb2c1f3d3d5c/769a5fa758de449e8154a6bbd33e9220/ca4664da0d224136adc4c7d8a42c21d9/preprocess/SubTool-4-7072737.OBJ"
    },
    {
      "mesh": 4,
      "name": ""
    },
    {
      "children": [
        14
      ],
      "name": "/sketchfab-data/processing/models/b00a7ba23db34fa68bbccb2c1f3d3d5c/769a5fa758de449e8154a6bbd33e9220/ca4664da0d224136adc4c7d8a42c21d9/preprocess/SubTool-3-7072737.OBJ"
    },
    {
      "mesh": 5,
      "name": ""
    },
    {
      "children": [
        16
      ],
      "name": "/sketchfab-data/processing/models/b00a7ba23db34fa68bbccb2c1f3d3d5c/769a5fa758de449e8154a6bbd33e9220/ca4664da0d224136adc4c7d8a42c21d9/preprocess/SubTool-2-3874942.OBJ"
    },
    {
      "mesh": 6,
      "name": ""
    },
    {
      "children": [
        18
      ],
      "name": "/sketchfab-data/processing/models/b00a7ba23db34fa68bbccb2c1f3d3d5c/769a5fa758de449e8154a6bbd33e9220/ca4664da0d224136adc4c7d8a42c21d9/preprocess/SubTool-1-7072737.OBJ"
    },
    {
      "mesh": 7,
      "name": ""
    },
    {
      "children": [
        20
      ],
      "name": "/sketchfab-data/processing/models/b00a7ba23db34fa68bbccb2c1f3d3d5c/769a5fa758de449e8154a6bbd33e9220/ca4664da0d224136adc4c7d8a42c21d9/preprocess/SubTool-0-10233600.OBJ"
    },
    {
      "mesh": 8,
      "name": ""
    }
  ],
  "scene": 0,
  "scenes": [
    {
      "name": "OSG_Scene",
      "nodes": [
        0
      ]
    }
  ]
}

